<?xml version="1.0" encoding="UTF-8" standalone="no"?>
<!DOCTYPE svg PUBLIC "-//W3C//DTD SVG 1.1//EN" "http://www.w3.org/Graphics/SVG/1.1/DTD/svg11.dtd">
<svg width="100%" height="100%" viewBox="0 0 1643 464" version="1.1" xmlns="http://www.w3.org/2000/svg" xmlns:xlink="http://www.w3.org/1999/xlink" xml:space="preserve" xmlns:serif="http://www.serif.com/" style="fill-rule:evenodd;clip-rule:evenodd;stroke-linejoin:round;stroke-miterlimit:2;">
    <g transform="matrix(1,0,0,1,-2081.835287,-4197.947543)">
        <g id="Artboard7" transform="matrix(0.821014,0,0,0.231994,398.757174,3246.77409)">
            <rect x="2050" y="4100" width="2000" height="2000" style="fill:none;"/>
            <g transform="matrix(0.438118,0,0,1.527981,1962.121429,3536.852874)">
                <g transform="matrix(1.41172,0,0,1.41172,-368.771747,-205.846641)">
                    <path d="M530.212,406.882L748.044,406.882L748.044,781.107C748.044,781.107 850.444,743.87 902.575,611.681C954.706,479.493 960.492,406.882 960.492,406.882L1255.161,406.882C1255.161,406.882 1235.78,509.667 1026.616,764.407C790.582,1023.808 530.212,1103.049 530.212,1103.049L530.212,406.882Z" style="fill:rgb(14,111,249);"/>
                </g>
                <g transform="matrix(1.41172,0,0,1.41172,-479.643052,-327.52685)">
                    <path d="M530.212,1420.254L1180.996,1171.065L1351.306,1420.254L1576.391,1420.254L1190.997,958.229C1189.119,958.671 527.937,1419.189 530.212,1420.254Z" style="fill:rgb(14,111,249);"/>
                </g>
            </g>
            <g transform="matrix(9.30459,0,0,30.915157,-41910.833533,-33257.539578)">
                <g transform="matrix(42.639327,0,0,42.639327,4806.307485,1272.502028)">
                    <path d="M0.083,-0L0.083,-0.745L0.181,-0.745L0.181,-0.326L0.157,-0.336L0.513,-0.745L0.636,-0.745L0.337,-0.4L0.342,-0.47L0.651,-0L0.534,-0L0.298,-0.354L0.181,-0.22L0.181,-0L0.083,-0Z" style="fill:white;fill-rule:nonzero;"/>
                </g>
                <g transform="matrix(44.638045,0,0,44.638045,4832.829147,1272.502028)">
                    <path d="M0.462,-0.5L0.546,-0.5L0.546,-0L0.462,-0L0.459,-0.085C0.443,-0.055 0.421,-0.032 0.394,-0.014C0.366,0.004 0.334,0.013 0.296,0.013C0.259,0.013 0.224,0.006 0.192,-0.008C0.16,-0.022 0.132,-0.041 0.108,-0.065C0.083,-0.09 0.064,-0.118 0.051,-0.15C0.037,-0.182 0.03,-0.217 0.03,-0.253C0.03,-0.289 0.037,-0.323 0.05,-0.355C0.064,-0.386 0.082,-0.414 0.106,-0.438C0.13,-0.462 0.157,-0.48 0.189,-0.494C0.22,-0.507 0.254,-0.514 0.29,-0.514C0.329,-0.514 0.363,-0.505 0.393,-0.486C0.423,-0.468 0.447,-0.444 0.465,-0.414L0.462,-0.5ZM0.294,-0.068C0.327,-0.068 0.355,-0.076 0.38,-0.093C0.404,-0.109 0.422,-0.131 0.436,-0.159C0.449,-0.186 0.455,-0.217 0.455,-0.25C0.455,-0.284 0.449,-0.315 0.435,-0.342C0.422,-0.37 0.403,-0.392 0.379,-0.408C0.355,-0.424 0.327,-0.432 0.294,-0.432C0.261,-0.432 0.231,-0.424 0.204,-0.408C0.177,-0.391 0.156,-0.369 0.14,-0.342C0.124,-0.314 0.116,-0.284 0.116,-0.25C0.116,-0.216 0.124,-0.186 0.14,-0.158C0.157,-0.131 0.178,-0.109 0.205,-0.093C0.232,-0.076 0.262,-0.068 0.294,-0.068Z" style="fill:white;fill-rule:nonzero;"/>
                </g>
                <g transform="matrix(42.639327,0,0,42.639327,4857.201519,1272.502028)">
                    <path d="M0.265,0.012C0.211,0.012 0.164,-0.001 0.124,-0.028C0.084,-0.054 0.056,-0.091 0.038,-0.136L0.113,-0.172C0.128,-0.14 0.149,-0.114 0.176,-0.096C0.203,-0.077 0.232,-0.068 0.265,-0.068C0.294,-0.068 0.318,-0.075 0.338,-0.089C0.357,-0.103 0.366,-0.121 0.366,-0.144C0.366,-0.16 0.362,-0.173 0.353,-0.182C0.344,-0.192 0.333,-0.2 0.321,-0.205C0.308,-0.211 0.296,-0.215 0.286,-0.218L0.205,-0.241C0.156,-0.255 0.121,-0.275 0.099,-0.301C0.076,-0.327 0.065,-0.357 0.065,-0.392C0.065,-0.424 0.073,-0.452 0.089,-0.476C0.106,-0.499 0.128,-0.518 0.156,-0.531C0.185,-0.544 0.216,-0.55 0.252,-0.55C0.299,-0.55 0.341,-0.538 0.379,-0.514C0.417,-0.49 0.444,-0.457 0.46,-0.414L0.384,-0.379C0.372,-0.407 0.354,-0.429 0.33,-0.445C0.306,-0.461 0.279,-0.47 0.249,-0.47C0.222,-0.47 0.2,-0.463 0.184,-0.449C0.168,-0.436 0.16,-0.419 0.16,-0.398C0.16,-0.382 0.164,-0.37 0.172,-0.36C0.179,-0.351 0.189,-0.343 0.201,-0.338C0.212,-0.333 0.223,-0.329 0.234,-0.326L0.322,-0.3C0.366,-0.287 0.4,-0.267 0.424,-0.241C0.448,-0.214 0.46,-0.182 0.461,-0.145C0.46,-0.115 0.452,-0.088 0.435,-0.064C0.419,-0.04 0.396,-0.021 0.366,-0.008C0.337,0.005 0.303,0.012 0.265,0.012Z" style="fill:white;fill-rule:nonzero;"/>
                </g>
                <g transform="matrix(42.639327,0,0,42.639327,4877.284642,1272.502028)">
                    <path d="M0.207,0.006C0.179,0.006 0.157,0.003 0.139,-0.005C0.122,-0.013 0.109,-0.023 0.1,-0.036C0.091,-0.049 0.084,-0.064 0.081,-0.081C0.078,-0.097 0.076,-0.115 0.076,-0.133L0.076,-0.743L0.167,-0.743L0.167,-0.142C0.167,-0.116 0.172,-0.096 0.183,-0.083C0.193,-0.07 0.207,-0.063 0.226,-0.062L0.253,-0.061L0.253,-0.002C0.246,0.001 0.238,0.003 0.229,0.004C0.221,0.006 0.214,0.006 0.207,0.006Z" style="fill:white;fill-rule:nonzero;"/>
                </g>
                <g transform="matrix(42.639327,0,0,42.639327,4888.498785,1272.502028)">
                    <path d="M0.328,0.012C0.276,0.012 0.229,-0 0.187,-0.025C0.145,-0.049 0.112,-0.083 0.087,-0.125C0.062,-0.167 0.05,-0.216 0.05,-0.27C0.05,-0.324 0.062,-0.372 0.086,-0.414C0.111,-0.456 0.144,-0.489 0.186,-0.514C0.228,-0.538 0.275,-0.55 0.328,-0.55C0.38,-0.55 0.427,-0.538 0.469,-0.514C0.511,-0.49 0.544,-0.457 0.568,-0.415C0.592,-0.373 0.605,-0.324 0.605,-0.27C0.605,-0.215 0.592,-0.167 0.567,-0.124C0.542,-0.082 0.508,-0.048 0.467,-0.024C0.425,-0 0.379,0.012 0.328,0.012ZM0.328,-0.078C0.361,-0.078 0.392,-0.086 0.418,-0.103C0.445,-0.12 0.467,-0.143 0.482,-0.172C0.498,-0.201 0.506,-0.234 0.506,-0.27C0.506,-0.306 0.498,-0.339 0.482,-0.367C0.467,-0.396 0.445,-0.419 0.418,-0.435C0.392,-0.452 0.361,-0.46 0.328,-0.461C0.294,-0.46 0.263,-0.452 0.236,-0.435C0.209,-0.419 0.188,-0.396 0.172,-0.367C0.156,-0.339 0.148,-0.306 0.148,-0.27C0.148,-0.234 0.156,-0.201 0.172,-0.172C0.188,-0.143 0.209,-0.12 0.236,-0.103C0.263,-0.086 0.294,-0.078 0.328,-0.078Z" style="fill:white;fill-rule:nonzero;"/>
                </g>
                <g transform="matrix(45.289136,0,0,45.289136,4914.679332,1272.502028)">
                    <path d="M0.114,0.006C0.095,0.006 0.079,-0.001 0.066,-0.014C0.053,-0.027 0.046,-0.043 0.046,-0.063C0.046,-0.083 0.053,-0.099 0.066,-0.112C0.079,-0.125 0.095,-0.131 0.114,-0.131C0.132,-0.131 0.147,-0.125 0.161,-0.112C0.174,-0.099 0.18,-0.083 0.18,-0.063C0.18,-0.043 0.174,-0.027 0.161,-0.014C0.147,-0.001 0.132,0.006 0.114,0.006Z" style="fill:white;fill-rule:nonzero;"/>
                </g>
                <g transform="matrix(45.289136,0,0,45.289136,4924.959966,1272.502028)">
                </g>
            </g>
        </g>
    </g>
</svg>
